<svg width="135" height="80" viewBox="0 0 135 80" fill="none" xmlns="http://www.w3.org/2000/svg">
<g filter="url(#filter0_d_10_14)">
<path d="M88.9333 26.2203C86.8537 25.6988 85.7609 25.1432 84.6712 24.0535C83.5894 22.9717 82.2881 20.407 82.0181 18.8247L81.8517 17.8492L84.1925 17.6772C85.48 17.5827 87.186 17.4816 87.9837 17.4527C89.4301 17.4002 89.4346 17.4025 89.6236 18.3007C90.1787 20.9378 93.2949 22.4141 95.9459 21.2959C96.8504 20.9143 97.6 19.8287 97.6 18.9005C97.6 17.8297 96.3371 16.7844 94.3186 16.1844C88.4687 14.4455 87.1169 13.9451 85.8183 13.0379C82.0639 10.4149 81.9217 4.94838 85.5362 2.18852C89.378 -0.744953 97.9208 -0.72597 101.789 2.22463C102.765 2.96904 103.857 4.90888 104.227 6.55603L104.466 7.62002L101.633 7.7884C100.075 7.88101 98.3889 7.98153 97.8865 8.01177C97.0675 8.06108 96.9502 7.9795 96.7513 7.22221C96.1288 4.85165 92.1283 3.86911 90.6664 5.72772C89.3735 7.37135 90.3904 8.17209 95.3199 9.39203C97.3658 9.89833 99.7805 10.6773 100.686 11.123C104.863 13.1794 106.346 17.2246 104.445 21.3771C103.305 23.8662 101.341 25.3881 98.2188 26.2014C96.3448 26.6895 90.8487 26.7007 88.9333 26.2203V26.2203ZM4 13.3783V0.423111L12.8667 0.527353C20.4244 0.616203 21.9078 0.698934 22.915 1.08775C25.7105 2.16686 27.2 4.34533 27.2 7.35485C27.2 9.71353 26.7632 10.9684 25.4233 12.4587C24.3496 13.6529 23.9718 13.8911 22.0209 14.6038L21.2418 14.8884L22.3365 15.43C23.825 16.1665 25.1954 18.0463 27.3689 22.3334C28.3727 24.3134 29.2364 26.0264 29.2881 26.14C29.3398 26.2536 27.3622 26.3136 24.8933 26.2733L20.4044 26.2001L18.1355 22.0373C16.8877 19.7478 15.6473 17.5478 15.3793 17.1484C14.8729 16.394 13.4803 15.6668 12.5419 15.6668C12.0152 15.6668 12 15.8165 12 21.0001V26.3334H8H4V13.3783ZM18.2312 10.2478C19.6768 9.30067 19.7167 7.2763 18.3105 6.22642C17.7084 5.77689 17.0809 5.66102 14.7889 5.57618L12 5.47294V8.2001V10.9273L14.7527 10.8254C16.816 10.749 17.6871 10.6044 18.2312 10.2478V10.2478Z" fill="white"/>
<path d="M30.176 48.088C29.792 48.088 29.536 48.0027 29.408 47.832C29.28 47.704 29.1733 47.4693 29.088 47.128C29.0453 46.9573 29.024 46.808 29.024 46.68V46.232C29.024 45.6347 29.152 45.1653 29.408 44.824C29.664 44.4827 30.1973 44.3333 31.008 44.376C31.0507 42.9253 31.4987 41.048 32.352 38.744C33.2053 36.3973 34.336 33.8373 35.744 31.064C37.1947 28.2907 38.816 25.5387 40.608 22.808C42.4 20.0347 44.2347 17.496 46.112 15.192C48.032 12.888 49.888 11.0533 51.68 9.68799C53.472 8.27999 55.0933 7.57599 56.544 7.57599C57.0987 7.57599 57.7813 7.81066 58.592 8.27999C59.4027 8.70666 60.128 9.23999 60.768 9.87999C61.4507 10.52 61.8133 11.1387 61.856 11.736V11.864C61.8987 11.864 61.92 11.9067 61.92 11.992C61.92 12.2907 61.8133 12.44 61.6 12.44C61.0453 12.1413 60.6613 11.864 60.448 11.608C60.2347 11.352 59.7227 11.224 58.912 11.224C57.504 11.224 55.904 11.8427 54.112 13.08C52.3627 14.2747 50.528 15.896 48.608 17.944C46.7307 19.9493 44.8747 22.168 43.04 24.6C41.248 27.032 39.6053 29.4853 38.112 31.96C36.6187 34.392 35.4027 36.6747 34.464 38.808C33.5253 40.8987 32.9707 42.6053 32.8 43.928C35.9147 43.4587 39.072 43.16 42.272 43.032C45.472 42.8613 48.6507 42.776 51.808 42.776C54.0693 42.776 55.8187 42.8827 57.056 43.096C58.2933 43.2667 59.1467 43.5013 59.616 43.8C60.128 44.0987 60.384 44.376 60.384 44.632C60.384 45.1013 59.5947 45.336 58.016 45.336C57.2907 45.336 56.3947 45.3147 55.328 45.272C54.304 45.1867 53.2373 45.144 52.128 45.144C50.2933 45.144 48.736 45.1867 47.456 45.272C46.176 45.3147 44.8533 45.4213 43.488 45.592C42.1227 45.7627 40.3733 46.0187 38.24 46.36C37.8987 46.4027 37.3013 46.5307 36.448 46.744C35.6373 46.9147 34.7627 47.1067 33.824 47.32C32.928 47.5333 32.1173 47.704 31.392 47.832C30.7093 48.0027 30.304 48.088 30.176 48.088Z" fill="#58BFCD"/>
<path d="M74.3135 47.064C74.8255 47.4053 75.2735 47.576 75.6575 47.576C75.8708 47.576 76.3615 47.2347 77.1295 46.552C77.9402 45.8267 78.8788 44.952 79.9455 43.928C81.0122 42.8613 82.0575 41.7947 83.0815 40.728C84.1055 39.6187 84.9588 38.6587 85.6415 37.848C85.6957 37.7803 85.7477 37.7147 85.7976 37.6513C85.7018 37.7329 85.5528 37.8411 85.3505 37.976C85.1372 38.1467 84.9452 38.232 84.7745 38.232C84.5612 38.232 84.4545 38.1253 84.4545 37.912C84.4545 37.7386 84.6518 37.4102 85.0464 36.9267C84.7157 37.287 84.274 37.7435 83.7215 38.296C82.8255 39.2347 81.8015 40.2587 80.6495 41.368C79.5402 42.4347 78.4948 43.3947 77.5135 44.248C76.5748 45.0587 75.8922 45.528 75.4655 45.656C75.2522 45.6987 75.1455 45.6347 75.1455 45.464C75.1882 45.2507 75.2308 45.08 75.2735 44.952C75.4868 44.1413 75.8068 43.16 76.2335 42.008C76.7028 40.8133 77.2362 39.64 77.8335 38.488C78.4735 37.336 79.1135 36.44 79.7535 35.8L80.1375 35.416C80.2228 35.3733 80.2655 35.2453 80.2655 35.032C80.2655 34.5627 80.0308 34.008 79.5615 33.368C79.1348 32.728 78.6868 32.408 78.2175 32.408C78.0042 32.408 77.7908 32.5573 77.5775 32.856C77.2788 33.2827 76.9802 33.7307 76.6815 34.2C76.3828 34.6693 76.0628 35.1387 75.7215 35.608C74.6548 37.0587 73.4388 38.4667 72.0735 39.832C70.7508 41.1973 69.3428 42.4133 67.8495 43.48C67.5508 43.6933 67.0388 44.0347 66.3135 44.504C65.6308 44.9733 65.1828 45.208 64.9695 45.208C64.7562 45.208 64.6495 45.016 64.6495 44.632C64.6495 44.2907 64.6922 43.9493 64.7775 43.608C64.9055 43.2667 65.0335 42.9467 65.1615 42.648C65.6308 41.624 66.3135 40.408 67.2095 39C68.1055 37.592 69.1508 36.2267 70.3455 34.904C71.5402 33.5387 72.7775 32.4293 74.0575 31.576C75.3802 30.68 76.6388 30.232 77.8335 30.232C78.5588 30.232 79.1562 30.424 79.6255 30.808C80.0948 31.192 80.4575 31.576 80.7135 31.96C81.0122 32.344 81.2255 32.536 81.3535 32.536C81.6095 32.536 81.7588 32.3013 81.8015 31.832C81.8868 31.3627 81.9295 31.0427 81.9295 30.872C81.9295 29.8053 81.5668 29.016 80.8415 28.504C80.1162 27.9493 79.1775 27.672 78.0255 27.672C76.9588 27.672 75.7428 28.0133 74.3775 28.696C73.0548 29.3787 71.6895 30.296 70.2815 31.448C68.9162 32.6 67.6362 33.88 66.4415 35.288C65.2895 36.6533 64.3508 38.0827 63.6255 39.576C62.9002 41.0267 62.5375 42.392 62.5375 43.672C62.5375 44.6107 62.8148 45.4213 63.3695 46.104C63.9668 46.744 64.7348 47.064 65.6735 47.064C66.3562 47.064 67.1668 46.616 68.1055 45.72C69.0868 44.824 70.0895 43.7573 71.1135 42.52C72.1802 41.24 73.1615 40.0453 74.0575 38.936C74.9962 37.784 75.7642 36.952 76.3615 36.44C76.0202 36.952 75.5295 37.7413 74.8895 38.808C74.2922 39.8747 73.7588 40.9627 73.2895 42.072C72.8202 43.1387 72.5855 43.992 72.5855 44.632C72.5855 45.016 72.7562 45.4427 73.0975 45.912C73.4388 46.3387 73.8442 46.7227 74.3135 47.064Z" fill="#A270B7"/>
<path d="M85.5775 36.312L85.8335 36.056C85.9615 35.928 86.0895 35.864 86.2175 35.864C86.5162 35.864 86.6655 36.0133 86.6655 36.312C86.6655 36.4691 86.3762 36.9155 85.7976 37.6513C85.823 37.6296 85.8446 37.6099 85.8625 37.592L88.1665 35.16C88.9345 34.3493 89.7238 33.56 90.5345 32.792C90.7052 32.664 90.9612 32.4507 91.3025 32.152C91.6865 31.8107 92.0705 31.4907 92.4545 31.192C92.8385 30.8507 93.0732 30.616 93.1585 30.488C92.8598 30.9573 92.3478 31.7467 91.6225 32.856C90.8972 33.9227 90.0865 35.1387 89.1905 36.504C88.2945 37.8267 87.4412 39.1707 86.6305 40.536C85.8198 41.9013 85.1372 43.1173 84.5825 44.184C84.0705 45.2507 83.8145 46.04 83.8145 46.552C83.8145 47.1493 84.0918 47.448 84.6465 47.448C84.9878 47.448 85.3505 47.3413 85.7345 47.128C86.1612 46.9147 86.4598 46.7013 86.6305 46.488C87.0145 45.976 87.3772 45.4427 87.7185 44.888C88.1025 44.3333 88.4652 43.8 88.8065 43.288C90.1718 41.4107 91.5158 39.7467 92.8385 38.296C94.2038 36.8453 95.8038 35.4373 97.6385 34.072C97.8945 33.8587 98.2998 33.5813 98.8545 33.24C99.4092 32.856 99.9638 32.4933 100.518 32.152C101.116 31.768 101.542 31.512 101.798 31.384C101.414 32.2373 100.774 33.2827 99.8785 34.52C99.0252 35.7573 98.1292 37.0587 97.1905 38.424C96.2518 39.7467 95.4412 41.0267 94.7585 42.264C94.0758 43.5013 93.7345 44.568 93.7345 45.464C93.7345 46.232 94.1185 46.7867 94.8865 47.128C95.6972 47.512 96.4225 47.704 97.0625 47.704C97.4465 47.704 97.7878 47.6187 98.0865 47.448C99.2385 46.7653 100.54 45.784 101.99 44.504C103.188 43.4125 104.356 42.2774 105.495 41.0987C105.654 40.6058 105.86 40.0982 106.113 39.576C106.418 38.948 106.769 38.3243 107.167 37.7048C106.87 38.0172 106.552 38.3423 106.214 38.68C105.276 39.6613 104.252 40.6427 103.142 41.624C102.033 42.6053 100.924 43.5013 99.8145 44.312C98.7478 45.08 97.7665 45.6347 96.8705 45.976C96.8278 45.848 96.8065 45.72 96.8065 45.592V45.208C96.8065 44.0987 97.1478 42.904 97.8305 41.624C98.5132 40.3013 99.3665 39 100.39 37.72C101.414 36.44 102.438 35.2453 103.462 34.136C104.529 33.0267 105.425 32.1307 106.15 31.448L107.046 30.552C107.345 30.2533 107.494 29.8267 107.494 29.272C107.494 28.7173 107.26 28.312 106.79 28.056C106.364 27.8 105.916 27.672 105.446 27.672H104.166C103.782 27.6293 103.42 27.7147 103.078 27.928C102.78 28.1413 102.46 28.3973 102.118 28.696C101.82 28.9947 101.521 29.272 101.222 29.528L96.6785 33.24C95.4838 34.2213 94.2465 35.288 92.9665 36.44C91.6865 37.5493 90.5345 38.68 89.5105 39.832C90.4065 38.5093 91.3878 37.08 92.4545 35.544C93.5212 34.008 94.6518 32.5147 95.8465 31.064C97.0838 29.6133 98.3425 28.3547 99.6225 27.288C99.7078 27.2453 99.7505 27.1387 99.7505 26.968C99.7505 26.4987 99.4732 26.0933 98.9185 25.752C98.3638 25.368 97.8945 25.176 97.5105 25.176C96.8278 25.176 96.2305 25.3467 95.7185 25.688C95.2492 26.0293 94.8012 26.4773 94.3745 27.032C94.1185 27.3307 93.6278 27.864 92.9025 28.632C92.1772 29.4 91.3238 30.2747 90.3425 31.256C89.4038 32.2373 88.4865 33.1973 87.5905 34.136C86.6945 35.0747 85.9478 35.8853 85.3505 36.568C85.2387 36.6958 85.1373 36.8154 85.0464 36.9267C85.2776 36.6749 85.4546 36.47 85.5775 36.312Z" fill="#F0A650"/>
<path fill-rule="evenodd" clip-rule="evenodd" d="M108.646 36.056C108.732 35.9707 108.817 35.864 108.902 35.736C109.03 35.608 109.18 35.544 109.35 35.544C109.564 35.544 109.67 35.6933 109.67 35.992C109.67 36.1627 109.606 36.3547 109.478 36.568C108.668 37.6347 107.58 38.8933 106.214 40.344C105.976 40.5975 105.736 40.8491 105.495 41.0987C105.225 41.9347 105.089 42.7284 105.089 43.48C105.089 44.2053 105.303 44.952 105.729 45.72C106.156 46.488 106.775 46.872 107.585 46.872C108.353 46.872 109.228 46.552 110.209 45.912C111.233 45.2293 112.236 44.4187 113.217 43.48C114.241 42.5413 115.18 41.6027 116.033 40.664C116.887 39.6827 117.569 38.9147 118.081 38.36C118.124 39.8107 117.953 41.2613 117.569 42.712C117.228 44.1627 116.823 45.4853 116.353 46.68C115.201 47.3627 113.985 48.088 112.705 48.856C111.425 49.6667 110.209 50.4133 109.057 51.096C107.948 51.7787 107.031 52.3547 106.305 52.824C105.068 53.592 103.681 54.488 102.145 55.512C100.567 56.5787 99.0308 57.7093 97.5375 58.904C96.0441 60.1413 94.7428 61.464 93.6335 62.872C92.5242 64.28 91.7988 65.752 91.4575 67.288C91.4148 67.5013 91.3935 67.7147 91.3935 67.928C91.3508 68.1413 91.3295 68.3547 91.3295 68.568C91.3295 70.5307 92.3108 71.512 94.2735 71.512C95.2548 71.512 96.2575 71.2987 97.2815 70.872C98.3055 70.4453 99.2228 69.9973 100.033 69.528C104.855 66.7547 108.823 63.448 111.937 59.608C115.095 55.8107 117.655 51.3307 119.617 46.168C119.916 45.912 120.449 45.4213 121.217 44.696C122.028 43.928 122.924 43.0747 123.905 42.136C124.929 41.1547 125.889 40.1947 126.785 39.256C127.724 38.3173 128.492 37.5067 129.089 36.824C129.729 36.0987 130.049 35.6293 130.049 35.416C130.049 35.16 129.921 35.032 129.665 35.032C129.537 35.032 129.409 35.0747 129.281 35.16C129.196 35.2027 129.111 35.2667 129.025 35.352C128.343 35.992 127.681 36.6747 127.041 37.4C126.444 38.1253 125.804 38.8293 125.121 39.512C124.396 40.28 123.649 40.984 122.881 41.624C122.156 42.264 121.367 42.9253 120.513 43.608C121.153 41.816 121.559 40.216 121.729 38.808C121.9 37.4 121.985 35.7573 121.985 33.88C121.985 33.5387 121.857 33.304 121.601 33.176C121.345 33.048 121.089 32.984 120.833 32.984C119.98 32.984 119.425 33.3893 119.169 34.2L118.913 34.584C118.188 35.6933 117.228 37.0373 116.033 38.616C114.839 40.152 113.559 41.5813 112.193 42.904C110.828 44.2267 109.527 45.144 108.289 45.656L108.033 45.784H107.777C107.479 45.784 107.329 45.5707 107.329 45.144C107.329 44.8027 107.372 44.44 107.457 44.056C107.585 43.672 107.713 43.3307 107.841 43.032C108.268 41.9227 108.844 40.7707 109.569 39.576C110.337 38.3813 111.127 37.3573 111.937 36.504C112.577 35.864 113.367 35.1173 114.305 34.264C115.244 33.4107 116.247 32.6853 117.313 32.088C118.423 31.448 119.447 31.128 120.385 31.128C121.025 31.128 121.473 31.256 121.729 31.512C121.985 31.7253 122.199 31.96 122.369 32.216C122.54 32.4293 122.775 32.536 123.073 32.536C123.415 32.536 123.649 32.3867 123.777 32.088C123.948 31.7467 124.033 31.4267 124.033 31.128C124.033 30.1893 123.671 29.4213 122.945 28.824C122.22 28.184 121.409 27.864 120.513 27.864C119.361 27.864 118.103 28.2053 116.737 28.888C115.372 29.5707 114.007 30.488 112.641 31.64C111.276 32.792 110.017 34.0507 108.865 35.416C108.227 36.1724 107.661 36.9353 107.167 37.7048C107.734 37.1093 108.227 36.5597 108.646 36.056ZM99.5215 68.632C98.1562 69.4853 96.8975 69.912 95.7455 69.912C95.1908 69.912 94.6575 69.7627 94.1455 69.464C93.5908 69.208 93.3135 68.7387 93.3135 68.056C93.3135 67.2027 93.6975 66.2213 94.4655 65.112C95.2335 64.0453 96.2148 62.936 97.4095 61.784C98.6042 60.6747 99.8628 59.5867 101.185 58.52C102.508 57.496 103.745 56.5573 104.897 55.704C106.049 54.8933 106.967 54.2747 107.649 53.848C109.015 52.952 110.359 52.0347 111.681 51.096C113.047 50.2 114.391 49.2827 115.713 48.344H115.841C115.969 48.3867 116.012 48.472 115.969 48.6C115.372 50.008 114.625 51.4587 113.729 52.952C113.132 53.976 112.492 54.9573 111.809 55.896C111.127 56.8773 110.423 57.8587 109.697 58.84C109.057 59.6507 108.183 60.6533 107.073 61.848C106.007 63.0853 104.812 64.3227 103.489 65.56C102.167 66.7973 100.844 67.8213 99.5215 68.632Z" fill="#E05E5E"/>
<path d="M85.8335 36.056L85.5775 36.312C85.4546 36.47 85.2776 36.6749 85.0464 36.9267C84.6518 37.4102 84.4545 37.7386 84.4545 37.912C84.4545 38.1253 84.5612 38.232 84.7745 38.232C84.9452 38.232 85.1372 38.1467 85.3505 37.976C85.5528 37.8411 85.7018 37.7329 85.7976 37.6513C86.3762 36.9155 86.6655 36.4691 86.6655 36.312C86.6655 36.0133 86.5162 35.864 86.2175 35.864C86.0895 35.864 85.9615 35.928 85.8335 36.056Z" fill="#F0A650"/>
<path d="M108.902 35.736C108.817 35.864 108.732 35.9707 108.646 36.056C108.227 36.5597 107.734 37.1093 107.167 37.7048C106.769 38.3243 106.418 38.948 106.113 39.576C105.86 40.0982 105.654 40.6058 105.495 41.0987C105.736 40.8491 105.976 40.5975 106.214 40.344C107.58 38.8933 108.668 37.6347 109.478 36.568C109.606 36.3547 109.67 36.1627 109.67 35.992C109.67 35.6933 109.564 35.544 109.35 35.544C109.18 35.544 109.03 35.608 108.902 35.736Z" fill="#E05E5E"/>
</g>
<defs>
<filter id="filter0_d_10_14" x="0" y="0" width="134.049" height="79.512" filterUnits="userSpaceOnUse" color-interpolation-filters="sRGB">
<feFlood flood-opacity="0" result="BackgroundImageFix"/>
<feColorMatrix in="SourceAlpha" type="matrix" values="0 0 0 0 0 0 0 0 0 0 0 0 0 0 0 0 0 0 127 0" result="hardAlpha"/>
<feOffset dy="4"/>
<feGaussianBlur stdDeviation="2"/>
<feComposite in2="hardAlpha" operator="out"/>
<feColorMatrix type="matrix" values="0 0 0 0 0 0 0 0 0 0 0 0 0 0 0 0 0 0 0.25 0"/>
<feBlend mode="normal" in2="BackgroundImageFix" result="effect1_dropShadow_10_14"/>
<feBlend mode="normal" in="SourceGraphic" in2="effect1_dropShadow_10_14" result="shape"/>
</filter>
</defs>
</svg>
