<svg width="201" height="74" viewBox="0 0 201 74" fill="none" xmlns="http://www.w3.org/2000/svg">
<path d="M91.38 48.19C90.96 48.19 90.68 48.0967 90.54 47.91C90.4 47.77 90.2833 47.5133 90.19 47.14C90.1433 46.9533 90.12 46.79 90.12 46.65C90.12 46.4633 90.12 46.3 90.12 46.16C90.12 45.5067 90.26 44.9933 90.54 44.62C90.82 44.2467 91.4033 44.0833 92.29 44.13C92.3367 42.5433 92.8267 40.49 93.76 37.97C94.6933 35.4033 95.93 32.6033 97.47 29.57C99.0567 26.5367 100.83 23.5267 102.79 20.54C104.75 17.5067 106.757 14.73 108.81 12.21C110.91 9.68999 112.94 7.68333 114.9 6.18999C116.86 4.64999 118.633 3.87999 120.22 3.87999C120.827 3.87999 121.573 4.13666 122.46 4.64999C123.347 5.11666 124.14 5.69999 124.84 6.39999C125.587 7.09999 125.983 7.77666 126.03 8.42999C126.03 8.47666 126.03 8.52333 126.03 8.56999C126.077 8.56999 126.1 8.61666 126.1 8.70999C126.1 9.03666 125.983 9.19999 125.75 9.19999C125.143 8.87332 124.723 8.56999 124.49 8.28999C124.257 8.00999 123.697 7.86999 122.81 7.86999C121.27 7.86999 119.52 8.54666 117.56 9.89999C115.647 11.2067 113.64 12.98 111.54 15.22C109.487 17.4133 107.457 19.84 105.45 22.5C103.49 25.16 101.693 27.8433 100.06 30.55C98.4267 33.21 97.0967 35.7067 96.07 38.04C95.0433 40.3267 94.4367 42.1933 94.25 43.64C97.6567 43.1267 101.11 42.8 104.61 42.66C108.11 42.4733 111.587 42.38 115.04 42.38C117.513 42.38 119.427 42.4967 120.78 42.73C122.133 42.9167 123.067 43.1733 123.58 43.5C124.14 43.8267 124.42 44.13 124.42 44.41C124.42 44.9233 123.557 45.18 121.83 45.18C121.037 45.18 120.057 45.1567 118.89 45.11C117.77 45.0167 116.603 44.97 115.39 44.97C113.383 44.97 111.68 45.0167 110.28 45.11C108.88 45.1567 107.433 45.2733 105.94 45.46C104.447 45.6467 102.533 45.9267 100.2 46.3C99.8267 46.3467 99.1733 46.4867 98.24 46.72C97.3533 46.9067 96.3967 47.1167 95.37 47.35C94.39 47.5833 93.5033 47.77 92.71 47.91C91.9633 48.0967 91.52 48.19 91.38 48.19Z" fill="white"/>
<path d="M141.125 47.63C140.705 47.63 140.215 47.4433 139.655 47.07C139.142 46.6967 138.699 46.2767 138.325 45.81C137.952 45.2967 137.765 44.83 137.765 44.41C137.765 43.71 138.022 42.7767 138.535 41.61C139.049 40.3967 139.632 39.2067 140.285 38.04C140.985 36.8733 141.522 36.01 141.895 35.45C141.242 36.01 140.402 36.92 139.375 38.18C138.395 39.3933 137.322 40.7 136.155 42.1C135.035 43.4533 133.939 44.62 132.865 45.6C131.839 46.58 130.952 47.07 130.205 47.07C129.179 47.07 128.339 46.72 127.685 46.02C127.079 45.2733 126.775 44.3867 126.775 43.36C126.775 41.96 127.172 40.4667 127.965 38.88C128.759 37.2467 129.785 35.6833 131.045 34.19C132.352 32.65 133.752 31.25 135.245 29.99C136.785 28.73 138.279 27.7267 139.725 26.98C141.219 26.2333 142.549 25.86 143.715 25.86C144.975 25.86 146.002 26.1633 146.795 26.77C147.589 27.33 147.985 28.1933 147.985 29.36C147.985 29.5467 147.939 29.8967 147.845 30.41C147.799 30.9233 147.635 31.18 147.355 31.18C147.215 31.18 146.982 30.97 146.655 30.55C146.375 30.13 145.979 29.71 145.465 29.29C144.952 28.87 144.299 28.66 143.505 28.66C142.199 28.66 140.822 29.15 139.375 30.13C137.975 31.0633 136.622 32.2767 135.315 33.77C134.009 35.2167 132.865 36.71 131.885 38.25C130.905 39.79 130.159 41.12 129.645 42.24C129.505 42.5667 129.365 42.9167 129.225 43.29C129.132 43.6633 129.085 44.0367 129.085 44.41C129.085 44.83 129.202 45.04 129.435 45.04C129.669 45.04 130.159 44.7833 130.905 44.27C131.699 43.7567 132.259 43.3833 132.585 43.15C134.219 41.9833 135.759 40.6533 137.205 39.16C138.699 37.6667 140.029 36.1267 141.195 34.54C141.569 34.0267 141.919 33.5133 142.245 33C142.572 32.4867 142.899 31.9967 143.225 31.53C143.459 31.2033 143.692 31.04 143.925 31.04C144.439 31.04 144.929 31.39 145.395 32.09C145.909 32.79 146.165 33.3967 146.165 33.91C146.165 34.1433 146.119 34.2833 146.025 34.33C145.979 34.3767 145.839 34.5167 145.605 34.75C144.905 35.45 144.205 36.43 143.505 37.69C142.852 38.95 142.269 40.2333 141.755 41.54C141.289 42.8 140.939 43.8733 140.705 44.76C140.659 44.9 140.612 45.0867 140.565 45.32C140.565 45.5067 140.682 45.5767 140.915 45.53C141.382 45.39 142.129 44.8767 143.155 43.99C144.229 43.0567 145.372 42.0067 146.585 40.84C147.845 39.6267 148.965 38.5067 149.945 37.48C150.972 36.4533 151.649 35.73 151.975 35.31C152.069 35.2167 152.162 35.1233 152.255 35.03C152.395 34.89 152.535 34.82 152.675 34.82C153.002 34.82 153.165 34.9833 153.165 35.31C153.165 35.4967 152.792 36.0567 152.045 36.99C151.299 37.8767 150.365 38.9267 149.245 40.14C148.125 41.3067 146.982 42.4733 145.815 43.64C144.649 44.76 143.622 45.7167 142.735 46.51C141.895 47.2567 141.359 47.63 141.125 47.63Z" fill="white"/>
<path d="M164.537 47.77C163.837 47.77 163.044 47.56 162.157 47.14C161.317 46.7667 160.897 46.16 160.897 45.32C160.897 44.34 161.27 43.1733 162.017 41.82C162.764 40.4667 163.65 39.0667 164.677 37.62C165.704 36.1267 166.684 34.7033 167.617 33.35C168.597 31.9967 169.297 30.8533 169.717 29.92C169.437 30.06 168.97 30.34 168.317 30.76C167.71 31.1333 167.104 31.53 166.497 31.95C165.89 32.3233 165.447 32.6267 165.167 32.86C163.16 34.3533 161.41 35.8933 159.917 37.48C158.47 39.0667 157 40.8867 155.507 42.94C155.134 43.5 154.737 44.0833 154.317 44.69C153.944 45.2967 153.547 45.88 153.127 46.44C152.94 46.6733 152.614 46.9067 152.147 47.14C151.727 47.3733 151.33 47.49 150.957 47.49C150.35 47.49 150.047 47.1633 150.047 46.51C150.047 45.95 150.327 45.0867 150.887 43.92C151.494 42.7533 152.24 41.4233 153.127 39.93C154.014 38.4367 154.947 36.9667 155.927 35.52C156.907 34.0267 157.794 32.6967 158.587 31.53C159.38 30.3167 159.94 29.4533 160.267 28.94C160.174 29.08 159.917 29.3367 159.497 29.71C159.077 30.0367 158.657 30.3867 158.237 30.76C157.864 31.0867 157.584 31.32 157.397 31.46C156.51 32.3 155.647 33.1633 154.807 34.05C153.967 34.9367 153.127 35.8233 152.287 36.71C152.194 36.8033 152.007 36.9433 151.727 37.13C151.494 37.3167 151.284 37.41 151.097 37.41C150.864 37.41 150.747 37.2933 150.747 37.06C150.747 36.8267 151.074 36.3367 151.727 35.59C152.38 34.8433 153.197 33.9567 154.177 32.93C155.157 31.9033 156.16 30.8533 157.187 29.78C158.26 28.7067 159.194 27.75 159.987 26.91C160.78 26.07 161.317 25.4867 161.597 25.16C162.064 24.5533 162.554 24.0633 163.067 23.69C163.627 23.3167 164.28 23.13 165.027 23.13C165.447 23.13 165.96 23.34 166.567 23.76C167.174 24.1333 167.477 24.5767 167.477 25.09C167.477 25.2767 167.43 25.3933 167.337 25.44C165.937 26.6067 164.56 27.9833 163.207 29.57C161.9 31.1567 160.664 32.79 159.497 34.47C158.33 36.15 157.257 37.7133 156.277 39.16C157.397 37.9 158.657 36.6633 160.057 35.45C161.457 34.19 162.81 33.0233 164.117 31.95L169.087 27.89C169.414 27.61 169.74 27.3067 170.067 26.98C170.44 26.6533 170.79 26.3733 171.117 26.14C171.49 25.9067 171.887 25.8133 172.307 25.86C172.774 25.86 173.24 25.86 173.707 25.86C174.22 25.86 174.71 26 175.177 26.28C175.69 26.56 175.947 27.0033 175.947 27.61C175.947 28.2167 175.784 28.6833 175.457 29.01C175.177 29.29 174.85 29.6167 174.477 29.99C173.684 30.7367 172.704 31.7167 171.537 32.93C170.417 34.1433 169.297 35.45 168.177 36.85C167.057 38.25 166.124 39.6733 165.377 41.12C164.63 42.52 164.257 43.8267 164.257 45.04C164.257 45.18 164.257 45.32 164.257 45.46C164.257 45.6 164.28 45.74 164.327 45.88C165.307 45.5067 166.38 44.9 167.547 44.06C168.76 43.1733 169.974 42.1933 171.187 41.12C172.4 40.0467 173.52 38.9733 174.547 37.9C175.62 36.8267 176.507 35.87 177.207 35.03C177.3 34.9367 177.394 34.82 177.487 34.68C177.627 34.54 177.79 34.47 177.977 34.47C178.21 34.47 178.327 34.6333 178.327 34.96C178.327 35.1467 178.257 35.3567 178.117 35.59C177.23 36.7567 176.04 38.1333 174.547 39.72C173.054 41.3067 171.514 42.8233 169.927 44.27C168.34 45.67 166.917 46.7433 165.657 47.49C165.33 47.6767 164.957 47.77 164.537 47.77Z" fill="white"/>
<path d="M161.487 73.81C159.34 73.81 158.267 72.7367 158.267 70.59C158.267 70.3567 158.29 70.1233 158.337 69.89C158.337 69.6567 158.36 69.4233 158.407 69.19C158.78 67.51 159.573 65.9 160.787 64.36C162 62.82 163.423 61.3733 165.057 60.02C166.69 58.7133 168.37 57.4767 170.097 56.31C171.777 55.19 173.293 54.21 174.647 53.37C175.44 52.8567 176.443 52.2267 177.657 51.48C178.917 50.7333 180.247 49.9167 181.647 49.03C183.047 48.19 184.377 47.3967 185.637 46.65C186.15 45.3433 186.593 43.8967 186.967 42.31C187.387 40.7233 187.573 39.1367 187.527 37.55C186.967 38.1567 186.22 38.9967 185.287 40.07C184.353 41.0967 183.327 42.1233 182.207 43.15C181.133 44.1767 180.037 45.0633 178.917 45.81C177.843 46.51 176.887 46.86 176.047 46.86C175.16 46.86 174.483 46.44 174.017 45.6C173.55 44.76 173.317 43.9433 173.317 43.15C173.317 41.8433 173.69 40.42 174.437 38.88C175.183 37.34 176.187 35.8233 177.447 34.33C178.707 32.8367 180.083 31.46 181.577 30.2C183.07 28.94 184.563 27.9367 186.057 27.19C187.55 26.4433 188.927 26.07 190.187 26.07C191.167 26.07 192.053 26.42 192.847 27.12C193.64 27.7733 194.037 28.6133 194.037 29.64C194.037 29.9667 193.943 30.3167 193.757 30.69C193.617 31.0167 193.36 31.18 192.987 31.18C192.66 31.18 192.403 31.0633 192.217 30.83C192.03 30.55 191.797 30.2933 191.517 30.06C191.237 29.78 190.747 29.64 190.047 29.64C189.02 29.64 187.9 29.99 186.687 30.69C185.52 31.3433 184.423 32.1367 183.397 33.07C182.37 34.0033 181.507 34.82 180.807 35.52C179.92 36.4533 179.057 37.5733 178.217 38.88C177.423 40.1867 176.793 41.4467 176.327 42.66C176.187 42.9867 176.047 43.36 175.907 43.78C175.813 44.2 175.767 44.5967 175.767 44.97C175.767 45.4367 175.93 45.67 176.257 45.67C176.35 45.67 176.443 45.67 176.537 45.67C176.63 45.6233 176.723 45.5767 176.817 45.53C178.17 44.97 179.593 43.9667 181.087 42.52C182.58 41.0733 183.98 39.51 185.287 37.83C186.593 36.1033 187.643 34.6333 188.437 33.42L188.717 33C188.997 32.1133 189.603 31.67 190.537 31.67C190.817 31.67 191.097 31.74 191.377 31.88C191.657 32.02 191.797 32.2767 191.797 32.65C191.797 34.7033 191.703 36.5 191.517 38.04C191.33 39.58 190.887 41.33 190.187 43.29C191.12 42.5433 191.983 41.82 192.777 41.12C193.617 40.42 194.433 39.65 195.227 38.81C195.973 38.0633 196.673 37.2933 197.327 36.5C198.027 35.7067 198.75 34.96 199.497 34.26C199.59 34.1667 199.683 34.0967 199.777 34.05C199.917 33.9567 200.057 33.91 200.197 33.91C200.477 33.91 200.617 34.05 200.617 34.33C200.617 34.5633 200.267 35.0767 199.567 35.87C198.913 36.6167 198.073 37.5033 197.047 38.53C196.067 39.5567 195.017 40.6067 193.897 41.68C192.823 42.7067 191.843 43.64 190.957 44.48C190.117 45.2733 189.533 45.81 189.207 46.09C187.06 51.7367 184.26 56.6367 180.807 60.79C177.4 64.99 173.06 68.6067 167.787 71.64C166.9 72.1533 165.897 72.6433 164.777 73.11C163.657 73.5767 162.56 73.81 161.487 73.81ZM163.097 72.06C164.357 72.06 165.733 71.5933 167.227 70.66C168.673 69.7733 170.12 68.6533 171.567 67.3C173.013 65.9467 174.32 64.5933 175.487 63.24C176.7 61.9333 177.657 60.8367 178.357 59.95C179.15 58.8767 179.92 57.8033 180.667 56.73C181.413 55.7033 182.113 54.63 182.767 53.51C183.747 51.8767 184.563 50.29 185.217 48.75C185.263 48.61 185.217 48.5167 185.077 48.47C184.983 48.47 184.937 48.47 184.937 48.47C183.49 49.4967 182.02 50.5 180.527 51.48C179.08 52.5067 177.61 53.51 176.117 54.49C175.37 54.9567 174.367 55.6333 173.107 56.52C171.847 57.4533 170.493 58.48 169.047 59.6C167.6 60.7667 166.223 61.9567 164.917 63.17C163.61 64.43 162.537 65.6433 161.697 66.81C160.857 68.0233 160.437 69.0967 160.437 70.03C160.437 70.7767 160.74 71.29 161.347 71.57C161.907 71.8967 162.49 72.06 163.097 72.06Z" fill="white"/>
<path d="M60.3289 49.3343C56.5499 48.353 54.5641 47.3076 52.5839 45.2573C50.6182 43.2219 48.2535 38.3963 47.763 35.4192L47.4606 33.5838L51.7142 33.2603C54.0537 33.0823 57.1538 32.8922 58.6033 32.8377C61.2316 32.7391 61.2398 32.7434 61.5833 34.4333C62.5919 39.3951 68.2545 42.1729 73.0717 40.0688C74.7152 39.3509 76.0774 37.3083 76.0774 35.5618C76.0774 33.5471 73.7825 31.5803 70.1146 30.4514C59.4847 27.1796 57.0282 26.238 54.6685 24.5311C47.8461 19.5959 47.5878 9.31053 54.1558 4.11777C61.137 -1.40165 76.6603 -1.36594 83.6898 4.18572C85.4632 5.58635 87.4472 9.23621 88.1197 12.3354L88.5541 14.3373L83.406 14.6541C80.5746 14.8284 77.511 15.0175 76.5981 15.0744C75.1097 15.1672 74.8966 15.0137 74.5352 13.5888C73.4041 9.12853 66.1347 7.27986 63.478 10.7769C61.1287 13.8694 62.9766 15.376 71.9342 17.6714C75.6518 18.624 80.0396 20.0896 81.6849 20.9282C89.2753 24.7974 91.9699 32.4085 88.5154 40.2216C86.4447 44.9049 82.8756 47.7685 77.2018 49.2987C73.7965 50.217 63.8093 50.2382 60.3289 49.3343ZM0 0.294354L16.1119 0.490486C29.8454 0.657659 32.5409 0.813323 34.3712 1.54488C39.451 3.57526 42.1575 7.67411 42.1575 13.3366C42.1575 17.7745 41.3637 20.1357 38.929 22.9396C36.978 25.1866 36.2914 25.6348 32.7464 26.9757L31.3306 27.5112L33.32 28.5303C36.0247 29.9159 38.5148 33.4529 42.4644 41.5193C44.2885 45.2447 45.8579 48.4677 45.9519 48.6814C46.0459 48.8952 42.4522 49.0081 37.9659 48.9323L29.809 48.7945L25.6862 40.9622C23.4186 36.6543 21.1648 32.5149 20.6777 31.7635C19.7575 30.344 17.2269 28.9757 15.5218 28.9757C14.5647 28.9757 14.5371 29.2574 14.5371 39.0106V49.0454H0V0.294354ZM25.8601 18.7799C28.4869 16.9977 28.5594 13.1888 26.0041 11.2134C24.91 10.3676 23.7697 10.1496 19.6049 9.99L14.5371 9.79576V20.0582L19.5391 19.8665C23.2885 19.7228 24.8713 19.4507 25.8601 18.7799Z" fill="white"/>
</svg>
