<?xml version="1.0" encoding="UTF-8" standalone="no"?>
<svg width="80px" height="80px" viewBox="-3 0 80 80" version="1.1" xmlns="http://www.w3.org/2000/svg" xmlns:xlink="http://www.w3.org/1999/xlink">
    <!-- Uploaded to SVGRepo https://www.svgrepo.com -->
    <title>4-multimeda-sound</title>
    <desc>Created with Sketch.</desc>
    <defs></defs>
    <g id="3.Multimedia" stroke="none" stroke-width="1" fill="none" fill-rule="evenodd" stroke-linecap="round" stroke-linejoin="round">
        <g id="Multimedia-(Color)" transform="translate(-713.000000, -112.000000)" stroke="#263238" stroke-width="3.5">
            <g id="4-multimeda-sound" transform="translate(715.000000, 114.000000)">
                <path d="M15,53 L2.99942248,53 C1.34288718,53 0,51.6526814 0,49.9999809 L0,26.0000191 L0,26.0000191 C0,24.3431543 1.34435073,23 2.99942248,23 L15,23" id="Layer-1" fill="#FFFFFF"></path>
                <path d="M41.1547359,0.941677165 C43.2784166,-0.827905208 45,-0.0318034532 45,2.72842698 L45,73.0157762 C45,75.7721532 43.2793189,76.5728602 41.1547359,74.802526 L15,53.0087794 L15,22.7354238 L41.1547359,0.941677165 Z" id="Layer-2" fill="#B4DAF3"></path>
                <path d="M60,48 L60,48 C65.5228475,48 70,43.5228475 70,38 C70,32.4771525 65.5228475,28 60,28" id="Layer-3"></path>
            </g>
        </g>
    </g>
</svg>